<svg width="14" height="15" viewBox="0 0 14 15" fill="none" xmlns="http://www.w3.org/2000/svg">
<path d="M13.3438 7.60449C13.3438 8.88053 13.0703 10.0199 12.5234 11.0225C11.9766 12.0251 11.2018 12.8089 10.1992 13.374C9.21484 13.9391 8.07552 14.2217 6.78125 14.2217C5.5599 14.2217 4.42969 13.9118 3.39062 13.292C2.35156 12.6904 1.52214 11.8701 0.902344 10.8311C0.300781 9.79199 0 8.66178 0 7.44043C0 6.21908 0.300781 5.08887 0.902344 4.0498C1.52214 3.01074 2.35156 2.19043 3.39062 1.58887C4.42969 0.969076 5.5599 0.65918 6.78125 0.65918C8.54948 0.65918 10.0625 1.25163 11.3203 2.43652L9.48828 4.21387C8.90495 3.64876 8.20312 3.31152 7.38281 3.20215C6.61719 3.09277 5.86068 3.20215 5.11328 3.53027C4.36589 3.8584 3.76432 4.35059 3.30859 5.00684C2.81641 5.71777 2.57031 6.52897 2.57031 7.44043C2.57031 8.22428 2.76172 8.94434 3.14453 9.60059C3.52734 10.2386 4.03776 10.7581 4.67578 11.1592C5.3138 11.542 6.01562 11.7334 6.78125 11.7334C7.60156 11.7334 8.32161 11.5511 8.94141 11.1865C9.43359 10.8949 9.84375 10.5029 10.1719 10.0107C10.4089 9.6097 10.5638 9.20866 10.6367 8.80762H6.78125V6.45605H13.2344C13.3073 6.8571 13.3438 7.23991 13.3438 7.60449Z" fill="#D93025"/>
</svg>
