<svg width="40" height="40" viewBox="0 0 40 40" fill="none" xmlns="http://www.w3.org/2000/svg">
<path d="M35.7143 4.28571H31.4286V1.4286C31.4286 0.639592 30.789 0 30 0C29.211 0 28.5714 0.639592 28.5714 1.4286V4.28571H11.4285V1.4286C11.4285 0.639592 10.7889 0 10 0C9.2111 0 8.57142 0.639592 8.57142 1.4286V4.28571H4.28571C1.91878 4.28571 0 6.20449 0 8.57142V35.7143C0 38.0812 1.91878 40 4.28571 40H35.7143C38.0812 40 40 38.0812 40 35.7143V8.57142C40 6.20449 38.0812 4.28571 35.7143 4.28571ZM37.1428 35.7143C37.1428 36.5033 36.5032 37.1429 35.7142 37.1429H4.28571C3.49671 37.1429 2.85711 36.5033 2.85711 35.7143V17.1428H37.1428V35.7143ZM37.1428 14.2857H2.85711V8.57142C2.85711 7.78242 3.49671 7.14282 4.28571 7.14282H8.57142V9.99994C8.57142 10.7889 9.21101 11.4285 10 11.4285C10.789 11.4285 11.4286 10.7889 11.4286 9.99994V7.14282H28.5715V9.99994C28.5715 10.7889 29.2111 11.4285 30.0001 11.4285C30.7891 11.4285 31.4287 10.7889 31.4287 9.99994V7.14282H35.7144C36.5034 7.14282 37.143 7.78242 37.143 8.57142V14.2857H37.1428Z" fill="#234DD4"/>
<path d="M29.5464 20.4186C28.9928 19.8839 28.1151 19.8839 27.5616 20.4186L17.1429 30.8372L12.4386 26.1328C11.8711 25.5847 10.9667 25.6005 10.4186 26.1679C9.8839 26.7215 9.8839 27.5992 10.4186 28.1528L16.1329 33.8671C16.6908 34.4248 17.5951 34.4248 18.1529 33.8671L29.5814 22.4386C30.1296 21.8711 30.1138 20.9667 29.5464 20.4186Z" fill="#234DD4"/>
</svg>
