<svg width="40" height="40" viewBox="0 0 40 40" fill="none" xmlns="http://www.w3.org/2000/svg">
<g clip-path="url(#clip0_419_13115)">
<path d="M39.5444 37.3446L29.7822 27.5832C32.2086 24.6653 33.6705 20.9184 33.6705 16.8358C33.6705 7.55249 26.1184 4.26962e-09 16.8358 4.26962e-09C7.55249 -0.000207351 0 7.55228 0 16.8356C0 26.1182 7.55249 33.6703 16.8358 33.6703C20.9182 33.6703 24.6651 32.2086 27.5828 29.7824L37.3452 39.544C37.6488 39.8476 38.0469 39.9994 38.4448 39.9994C38.8428 39.9994 39.2409 39.8476 39.5447 39.5438C40.152 38.9365 40.152 37.952 39.5444 37.3446ZM3.11032 16.8356C3.11032 9.26731 9.26752 3.11012 16.8358 3.11012C24.4034 3.11012 30.5602 9.26731 30.5602 16.8356C30.5602 24.4032 24.4036 30.56 16.8358 30.56C9.26752 30.56 3.11032 24.4032 3.11032 16.8356Z" fill="white"/>
<path d="M16.8345 8.70605C13.5604 8.70605 10.8965 11.3695 10.8965 14.6435C10.8965 19.6133 15.5373 24.3108 15.7349 24.5084C16.0385 24.8119 16.4364 24.9637 16.8345 24.9637C17.2324 24.9637 17.6303 24.8119 17.9339 24.5086C18.1315 24.311 22.7746 19.6135 22.7746 14.6435C22.7744 11.3697 20.1097 8.70605 16.8345 8.70605ZM16.8308 21.0453C15.5773 19.4524 14.0068 16.9264 14.0068 14.6437C14.0068 13.0848 15.2752 11.8166 16.8345 11.8166C18.3946 11.8166 19.6641 13.0848 19.6641 14.6437C19.6641 17.0508 17.9936 19.5777 16.8308 21.0453Z" fill="white"/>
</g>
<defs>
<clipPath id="clip0_419_13115">
<rect width="40" height="40" fill="white"/>
</clipPath>
</defs>
</svg>
