<svg width="256" height="45" viewBox="0 0 256 45" fill="none" xmlns="http://www.w3.org/2000/svg">
<path d="M70.33 25.02H76.78C76.6 25.72 76.33 26.38 75.97 27C75.61 27.62 75.16 28.17 74.62 28.65C74.08 29.13 73.44 29.5 72.7 29.76C71.96 30.02 71.12 30.15 70.18 30.15C68.8 30.15 67.56 29.83 66.46 29.19C65.36 28.55 64.48 27.66 63.82 26.52C63.18 25.36 62.86 24.02 62.86 22.5C62.86 20.96 63.19 19.63 63.85 18.51C64.51 17.37 65.39 16.49 66.49 15.87C67.59 15.23 68.82 14.91 70.18 14.91C71.64 14.91 72.88 15.21 73.9 15.81C74.94 16.41 75.75 17.21 76.33 18.21L79.21 16.29C78.59 15.31 77.83 14.48 76.93 13.8C76.05 13.1 75.05 12.57 73.93 12.21C72.81 11.83 71.56 11.64 70.18 11.64C68.6 11.64 67.13 11.9 65.77 12.42C64.43 12.94 63.26 13.69 62.26 14.67C61.28 15.63 60.51 16.78 59.95 18.12C59.41 19.44 59.14 20.9 59.14 22.5C59.14 24.1 59.41 25.57 59.95 26.91C60.49 28.25 61.25 29.41 62.23 30.39C63.23 31.37 64.4 32.13 65.74 32.67C67.08 33.19 68.54 33.45 70.12 33.45C71.78 33.45 73.26 33.15 74.56 32.55C75.88 31.93 76.98 31.09 77.86 30.03C78.74 28.97 79.4 27.76 79.84 26.4C80.28 25.02 80.48 23.56 80.44 22.02H70.33V25.02ZM87.1305 27.6V19.2H83.8005V27.96C83.8005 29.6 84.2105 30.9 85.0305 31.86C85.8705 32.82 87.0605 33.3 88.6005 33.3C89.5605 33.3 90.3805 33.1 91.0605 32.7C91.7605 32.28 92.3305 31.67 92.7705 30.87V33H96.0105V19.2H92.7705V27.6C92.7705 28.22 92.6405 28.77 92.3805 29.25C92.1205 29.71 91.7605 30.07 91.3005 30.33C90.8405 30.57 90.3005 30.69 89.6805 30.69C88.8205 30.69 88.1805 30.42 87.7605 29.88C87.3405 29.34 87.1305 28.58 87.1305 27.6ZM100.028 13.71C100.028 14.25 100.228 14.72 100.628 15.12C101.048 15.5 101.528 15.69 102.068 15.69C102.648 15.69 103.128 15.5 103.508 15.12C103.908 14.72 104.108 14.25 104.108 13.71C104.108 13.15 103.908 12.68 103.508 12.3C103.128 11.92 102.648 11.73 102.068 11.73C101.528 11.73 101.048 11.92 100.628 12.3C100.228 12.68 100.028 13.15 100.028 13.71ZM100.478 19.2V33H103.658V19.2H100.478ZM118.497 9.6V33H121.767V9.6H118.497ZM107.067 26.1C107.067 27.6 107.377 28.89 107.997 29.97C108.617 31.05 109.437 31.88 110.457 32.46C111.497 33.02 112.607 33.3 113.787 33.3C114.947 33.3 115.957 33.01 116.817 32.43C117.697 31.85 118.387 31.02 118.887 29.94C119.407 28.86 119.667 27.58 119.667 26.1C119.667 24.6 119.407 23.32 118.887 22.26C118.387 21.18 117.697 20.35 116.817 19.77C115.957 19.19 114.947 18.9 113.787 18.9C112.607 18.9 111.497 19.19 110.457 19.77C109.437 20.33 108.617 21.15 107.997 22.23C107.377 23.29 107.067 24.58 107.067 26.1ZM110.427 26.1C110.427 25.18 110.617 24.39 110.997 23.73C111.377 23.07 111.877 22.57 112.497 22.23C113.137 21.89 113.827 21.72 114.567 21.72C115.187 21.72 115.797 21.89 116.397 22.23C117.017 22.57 117.517 23.07 117.897 23.73C118.297 24.37 118.497 25.16 118.497 26.1C118.497 27.04 118.297 27.84 117.897 28.5C117.517 29.14 117.017 29.63 116.397 29.97C115.797 30.31 115.187 30.48 114.567 30.48C113.827 30.48 113.137 30.31 112.497 29.97C111.877 29.63 111.377 29.13 110.997 28.47C110.617 27.81 110.427 27.02 110.427 26.1ZM131.783 33.3C133.383 33.3 134.753 32.99 135.893 32.37C137.033 31.75 137.963 30.82 138.683 29.58L135.893 28.44C135.453 29.18 134.903 29.73 134.243 30.09C133.583 30.45 132.813 30.63 131.933 30.63C131.093 30.63 130.373 30.45 129.773 30.09C129.193 29.73 128.753 29.21 128.453 28.53C128.153 27.83 128.003 26.98 128.003 25.98C128.023 24.98 128.183 24.14 128.483 23.46C128.783 22.78 129.223 22.26 129.803 21.9C130.383 21.54 131.083 21.36 131.903 21.36C132.583 21.36 133.173 21.51 133.673 21.81C134.193 22.11 134.593 22.53 134.873 23.07C135.173 23.61 135.323 24.25 135.323 24.99C135.323 25.13 135.283 25.31 135.203 25.53C135.143 25.73 135.083 25.89 135.023 26.01L136.013 24.63H126.653V26.85H138.773C138.793 26.77 138.803 26.64 138.803 26.46C138.823 26.28 138.833 26.11 138.833 25.95C138.833 24.47 138.553 23.21 137.993 22.17C137.453 21.11 136.673 20.3 135.653 19.74C134.633 19.18 133.393 18.9 131.933 18.9C130.473 18.9 129.203 19.2 128.123 19.8C127.043 20.38 126.203 21.21 125.603 22.29C125.023 23.37 124.733 24.64 124.733 26.1C124.733 27.54 125.023 28.8 125.603 29.88C126.183 30.96 127.003 31.8 128.063 32.4C129.143 33 130.383 33.3 131.783 33.3ZM154.07 9.6H150.8V33H154.07V9.6ZM165.5 26.1C165.5 24.58 165.19 23.29 164.57 22.23C163.95 21.15 163.13 20.33 162.11 19.77C161.09 19.19 159.98 18.9 158.78 18.9C157.64 18.9 156.62 19.19 155.72 19.77C154.84 20.35 154.15 21.18 153.65 22.26C153.15 23.32 152.9 24.6 152.9 26.1C152.9 27.58 153.15 28.86 153.65 29.94C154.15 31.02 154.84 31.85 155.72 32.43C156.62 33.01 157.64 33.3 158.78 33.3C159.98 33.3 161.09 33.02 162.11 32.46C163.13 31.88 163.95 31.05 164.57 29.97C165.19 28.89 165.5 27.6 165.5 26.1ZM162.14 26.1C162.14 27.02 161.95 27.81 161.57 28.47C161.19 29.13 160.68 29.63 160.04 29.97C159.42 30.31 158.73 30.48 157.97 30.48C157.35 30.48 156.74 30.31 156.14 29.97C155.54 29.63 155.04 29.14 154.64 28.5C154.26 27.84 154.07 27.04 154.07 26.1C154.07 25.16 154.26 24.37 154.64 23.73C155.04 23.07 155.54 22.57 156.14 22.23C156.74 21.89 157.35 21.72 157.97 21.72C158.73 21.72 159.42 21.89 160.04 22.23C160.68 22.57 161.19 23.07 161.57 23.73C161.95 24.39 162.14 25.18 162.14 26.1ZM167.536 26.1C167.536 27.5 167.856 28.75 168.496 29.85C169.156 30.93 170.046 31.78 171.166 32.4C172.286 33 173.556 33.3 174.976 33.3C176.396 33.3 177.656 33 178.756 32.4C179.876 31.78 180.766 30.93 181.426 29.85C182.086 28.75 182.416 27.5 182.416 26.1C182.416 24.68 182.086 23.43 181.426 22.35C180.766 21.27 179.876 20.43 178.756 19.83C177.656 19.21 176.396 18.9 174.976 18.9C173.556 18.9 172.286 19.21 171.166 19.83C170.046 20.43 169.156 21.27 168.496 22.35C167.856 23.43 167.536 24.68 167.536 26.1ZM170.866 26.1C170.866 25.24 171.046 24.48 171.406 23.82C171.766 23.16 172.256 22.65 172.876 22.29C173.496 21.93 174.196 21.75 174.976 21.75C175.736 21.75 176.426 21.93 177.046 22.29C177.686 22.65 178.186 23.16 178.546 23.82C178.906 24.48 179.086 25.24 179.086 26.1C179.086 26.96 178.906 27.72 178.546 28.38C178.186 29.02 177.686 29.53 177.046 29.91C176.426 30.27 175.736 30.45 174.976 30.45C174.196 30.45 173.496 30.27 172.876 29.91C172.256 29.53 171.766 29.02 171.406 28.38C171.046 27.72 170.866 26.96 170.866 26.1ZM184.44 26.1C184.44 27.5 184.76 28.75 185.4 29.85C186.06 30.93 186.95 31.78 188.07 32.4C189.19 33 190.46 33.3 191.88 33.3C193.3 33.3 194.56 33 195.66 32.4C196.78 31.78 197.67 30.93 198.33 29.85C198.99 28.75 199.32 27.5 199.32 26.1C199.32 24.68 198.99 23.43 198.33 22.35C197.67 21.27 196.78 20.43 195.66 19.83C194.56 19.21 193.3 18.9 191.88 18.9C190.46 18.9 189.19 19.21 188.07 19.83C186.95 20.43 186.06 21.27 185.4 22.35C184.76 23.43 184.44 24.68 184.44 26.1ZM187.77 26.1C187.77 25.24 187.95 24.48 188.31 23.82C188.67 23.16 189.16 22.65 189.78 22.29C190.4 21.93 191.1 21.75 191.88 21.75C192.64 21.75 193.33 21.93 193.95 22.29C194.59 22.65 195.09 23.16 195.45 23.82C195.81 24.48 195.99 25.24 195.99 26.1C195.99 26.96 195.81 27.72 195.45 28.38C195.09 29.02 194.59 29.53 193.95 29.91C193.33 30.27 192.64 30.45 191.88 30.45C191.1 30.45 190.4 30.27 189.78 29.91C189.16 29.53 188.67 29.02 188.31 28.38C187.95 27.72 187.77 26.96 187.77 26.1ZM202.274 9.6V33H205.454V9.6H202.274ZM210.524 19.2L204.554 24.9L211.154 33H215.084L208.544 24.9L214.484 19.2H210.524ZM217.128 13.71C217.128 14.25 217.328 14.72 217.728 15.12C218.148 15.5 218.628 15.69 219.168 15.69C219.748 15.69 220.228 15.5 220.608 15.12C221.008 14.72 221.208 14.25 221.208 13.71C221.208 13.15 221.008 12.68 220.608 12.3C220.228 11.92 219.748 11.73 219.168 11.73C218.628 11.73 218.148 11.92 217.728 12.3C217.328 12.68 217.128 13.15 217.128 13.71ZM217.578 19.2V33H220.758V19.2H217.578ZM234.096 24.6V33H237.426V24.24C237.426 22.58 237.016 21.28 236.196 20.34C235.376 19.38 234.186 18.9 232.626 18.9C231.666 18.9 230.836 19.1 230.136 19.5C229.456 19.9 228.896 20.51 228.456 21.33V19.2H225.216V33H228.456V24.6C228.456 23.98 228.586 23.44 228.846 22.98C229.106 22.5 229.466 22.14 229.926 21.9C230.386 21.64 230.916 21.51 231.516 21.51C232.396 21.51 233.046 21.77 233.466 22.29C233.886 22.81 234.096 23.58 234.096 24.6ZM240.784 33.93C240.824 35.13 241.124 36.19 241.684 37.11C242.264 38.03 243.084 38.74 244.144 39.24C245.204 39.76 246.484 40.02 247.984 40.02C249.244 40.02 250.414 39.75 251.494 39.21C252.574 38.69 253.444 37.89 254.104 36.81C254.784 35.73 255.124 34.36 255.124 32.7V19.2H251.944V32.7C251.944 33.74 251.744 34.59 251.344 35.25C250.964 35.91 250.464 36.4 249.844 36.72C249.224 37.04 248.574 37.2 247.894 37.2C247.134 37.2 246.464 37.06 245.884 36.78C245.304 36.5 244.844 36.11 244.504 35.61C244.184 35.11 244.014 34.55 243.994 33.93H240.784ZM240.514 26.04C240.514 27.54 240.824 28.82 241.444 29.88C242.064 30.94 242.884 31.75 243.904 32.31C244.944 32.87 246.054 33.15 247.234 33.15C248.394 33.15 249.404 32.87 250.264 32.31C251.144 31.73 251.834 30.91 252.334 29.85C252.854 28.79 253.114 27.52 253.114 26.04C253.114 24.54 252.854 23.26 252.334 22.2C251.834 21.14 251.144 20.33 250.264 19.77C249.404 19.19 248.394 18.9 247.234 18.9C246.054 18.9 244.944 19.18 243.904 19.74C242.884 20.3 242.064 21.11 241.444 22.17C240.824 23.21 240.514 24.5 240.514 26.04ZM243.874 26.04C243.874 25.1 244.064 24.31 244.444 23.67C244.824 23.03 245.324 22.55 245.944 22.23C246.584 21.89 247.274 21.72 248.014 21.72C248.474 21.72 248.934 21.81 249.394 21.99C249.874 22.17 250.304 22.45 250.684 22.83C251.064 23.19 251.364 23.64 251.584 24.18C251.824 24.7 251.944 25.32 251.944 26.04C251.944 26.96 251.744 27.75 251.344 28.41C250.964 29.05 250.464 29.53 249.844 29.85C249.244 30.17 248.634 30.33 248.014 30.33C247.274 30.33 246.584 30.17 245.944 29.85C245.324 29.51 244.824 29.02 244.444 28.38C244.064 27.74 243.874 26.96 243.874 26.04Z" fill="white"/>
<path fill-rule="evenodd" clip-rule="evenodd" d="M10.0278 34.3317C9.24142 33.869 8.47072 33.4223 7.6843 32.9595C7.354 32.7681 7.07088 32.5926 6.81923 32.4171L0.999692 28.9388C0.968235 32.9436 1.36145 33.8211 4.49141 35.672C8.29771 37.9217 12.1355 40.0916 15.9417 42.3733C16.1934 42.5328 16.4451 42.6605 16.681 42.8041C19.8896 44.639 20.7861 44.3837 24.6239 42.0542C26.8101 40.7299 29.0908 39.4534 31.3242 38.161C32.9442 37.2356 34.5643 36.2942 36.1057 35.321C38.6851 33.7095 39.0312 32.6883 38.9997 29.0345C38.9997 29.0185 38.9997 29.0026 38.9997 28.9866L32.3308 32.9915C32.2364 33.0553 32.1421 33.1031 32.0477 33.151C31.4658 33.502 30.8838 33.8531 30.2861 34.2041L27.6437 35.7837C27.6595 35.7518 27.6752 35.7198 27.6909 35.6879C26.3383 36.4697 24.9856 37.2356 23.6644 38.0334C20.4086 40.0278 19.811 40.1076 16.7754 38.2887C14.5262 36.9484 12.277 35.6401 10.0278 34.3317ZM36.0899 27.3911C38.5436 25.8434 38.9682 24.8542 38.984 21.5992C38.984 21.4397 38.984 21.2642 38.984 21.1046C38.984 21.0887 38.984 21.0568 38.984 21.0408L35.0676 23.3863L32.7712 24.7584C32.5196 24.918 32.2836 25.0616 32.032 25.2211C31.2456 25.6998 30.4591 26.1625 29.657 26.6252L28.1156 27.5506C28.1156 27.5347 28.1156 27.5187 28.1156 27.5028C26.6214 28.3484 25.1114 29.21 23.6487 30.1035C20.3929 32.082 19.7952 32.1777 16.7596 30.3588C11.522 27.2156 6.30019 24.0883 1.04688 20.9451C1.04688 21.679 1.04688 22.413 1.04688 23.1469C1.25135 25.3967 2.00631 26.2742 4.47569 27.7261C4.61724 27.8059 4.7588 27.8857 4.90035 27.9814C8.56509 30.1514 12.2456 32.2256 15.9103 34.4274C19.7323 36.7091 20.4715 36.5974 24.5767 34.0924C25.7249 33.3903 26.9202 32.7043 28.0999 32.0182C29.4053 31.2683 30.7108 30.5343 32.0005 29.7844C33.0229 29.1941 34.061 28.5877 35.0518 27.9814C35.4293 27.8059 35.7596 27.5985 36.0899 27.3911ZM35.0833 9.0742C31.2141 6.82448 27.3449 4.52689 23.4914 2.27717C20.0941 0.314642 19.2605 0.585885 15.1553 3.10685C11.9782 5.03746 8.8482 6.85639 5.62386 8.69127L5.56095 8.70722L5.40367 8.787C5.24638 8.88273 5.0891 8.96251 4.93181 9.05824L4.90035 9.0742C4.71161 9.18589 4.5386 9.28162 4.36559 9.39331C2.96575 10.2389 2.13214 10.8931 1.64456 11.7388C0.952506 12.9514 0.889593 15.1054 1.32999 16.4456C1.66029 17.4508 2.2737 18.1369 3.43761 18.9187C3.75218 19.1261 4.0982 19.3495 4.49141 19.5729C4.63297 19.6527 4.77453 19.7484 4.91608 19.8282L4.94754 19.8441C8.59655 22.0141 12.277 24.0883 15.926 26.2742C19.748 28.5558 20.4873 28.4441 24.5924 25.9391C25.7406 25.2371 26.936 24.551 28.1313 23.8649C29.4368 23.115 30.7422 22.3811 32.032 21.6312C32.032 21.1525 32.032 20.6738 32.032 20.1952C32.032 18.9028 31.9533 17.9774 31.7174 17.2274C31.2927 15.8872 30.3333 15.1373 28.3201 13.9406L21.022 9.63264C20.4401 9.29757 20.4715 9.31353 19.575 9.88793L18.7571 10.4145C17.8449 11.0048 17.9393 12.4089 18.7729 12.9195C20.9119 14.18 23.051 15.4404 25.1901 16.685C26.873 17.6742 27.6123 18.2965 27.9426 19.4453C26.5113 20.259 25.0643 21.0727 23.6802 21.9343C20.4244 23.9128 19.8267 24.0085 16.7911 22.1896C13.7398 20.3866 10.7042 18.6634 7.6843 16.8605C6.99224 16.4456 6.45747 16.0946 6.06426 15.7276C5.23065 14.9458 4.96327 14.4352 5.71824 13.5258C6.23728 12.9035 7.07088 12.361 8.42353 11.5952C11.0345 10.1432 13.5825 8.67531 16.1462 7.11167C16.2249 7.06381 16.3035 7.01594 16.3821 6.96808C19.4335 5.10128 20.1412 4.94173 22.7679 6.4575C25.8821 8.26047 29.0121 10.1273 32.1263 11.9462C35.8225 14.1002 35.1619 15.951 35.335 19.7005C35.681 19.4931 35.7439 19.4453 36.0899 19.2378C38.2605 17.8657 38.8424 16.9402 38.9682 14.4671C38.8424 11.7228 38.1189 10.8772 35.272 9.2178C35.2091 9.15398 35.1462 9.12206 35.0833 9.0742Z" fill="white"/>
</svg>
